<svg id="visual" viewBox="0 0 900 600" width="900" height="600" xmlns="http://www.w3.org/2000/svg" xmlns:xlink="http://www.w3.org/1999/xlink" version="1.1"><rect x="0" y="0" width="900" height="600" fill="#fff"></rect><defs><linearGradient id="grad1_0" x1="33.3%" y1="0%" x2="100%" y2="100%"><stop offset="20%" stop-color="#6c2bd9" stop-opacity="1"></stop><stop offset="80%" stop-color="#6c2bd9" stop-opacity="1"></stop></linearGradient></defs><defs><linearGradient id="grad1_1" x1="33.3%" y1="0%" x2="100%" y2="100%"><stop offset="20%" stop-color="#6c2bd9" stop-opacity="1"></stop><stop offset="80%" stop-color="#a674e7" stop-opacity="1"></stop></linearGradient></defs><defs><linearGradient id="grad1_2" x1="33.3%" y1="0%" x2="100%" y2="100%"><stop offset="20%" stop-color="#d5b9f4" stop-opacity="1"></stop><stop offset="80%" stop-color="#a674e7" stop-opacity="1"></stop></linearGradient></defs><defs><linearGradient id="grad1_3" x1="33.3%" y1="0%" x2="100%" y2="100%"><stop offset="20%" stop-color="#d5b9f4" stop-opacity="1"></stop><stop offset="80%" stop-color="#ffffff" stop-opacity="1"></stop></linearGradient></defs><defs><linearGradient id="grad2_0" x1="0%" y1="0%" x2="66.7%" y2="100%"><stop offset="20%" stop-color="#6c2bd9" stop-opacity="1"></stop><stop offset="80%" stop-color="#6c2bd9" stop-opacity="1"></stop></linearGradient></defs><defs><linearGradient id="grad2_1" x1="0%" y1="0%" x2="66.7%" y2="100%"><stop offset="20%" stop-color="#a674e7" stop-opacity="1"></stop><stop offset="80%" stop-color="#6c2bd9" stop-opacity="1"></stop></linearGradient></defs><defs><linearGradient id="grad2_2" x1="0%" y1="0%" x2="66.7%" y2="100%"><stop offset="20%" stop-color="#a674e7" stop-opacity="1"></stop><stop offset="80%" stop-color="#d5b9f4" stop-opacity="1"></stop></linearGradient></defs><defs><linearGradient id="grad2_3" x1="0%" y1="0%" x2="66.7%" y2="100%"><stop offset="20%" stop-color="#ffffff" stop-opacity="1"></stop><stop offset="80%" stop-color="#d5b9f4" stop-opacity="1"></stop></linearGradient></defs><g transform="translate(900, 0)"><path d="M0 351.5C-78 351.9 -156 352.2 -175.8 304.4C-195.5 256.7 -157.1 160.8 -176.7 102C-196.3 43.2 -273.9 21.6 -351.5 0L0 0Z" fill="#ebdcfa"></path><path d="M0 263.7C-58.5 263.9 -117 264.2 -131.8 228.3C-146.7 192.5 -117.8 120.6 -132.5 76.5C-147.2 32.4 -205.4 16.2 -263.7 0L0 0Z" fill="#bf96ee"></path><path d="M0 175.8C-39 175.9 -78 176.1 -87.9 152.2C-97.8 128.3 -78.5 80.4 -88.3 51C-98.1 21.6 -137 10.8 -175.8 0L0 0Z" fill="#8b51e0"></path><path d="M0 87.9C-19.5 88 -39 88.1 -43.9 76.1C-48.9 64.2 -39.3 40.2 -44.2 25.5C-49.1 10.8 -68.5 5.4 -87.9 0L0 0Z" fill="#6c2bd9"></path></g><g transform="translate(0, 600)"><path d="M0 -351.5C27.5 -284.1 55 -216.6 113 -195.7C171 -174.9 259.6 -200.6 304.4 -175.8C349.3 -150.9 350.4 -75.5 351.5 0L0 0Z" fill="#ebdcfa"></path><path d="M0 -263.7C20.6 -213 41.2 -162.4 84.7 -146.8C128.3 -131.1 194.7 -150.5 228.3 -131.8C262 -113.2 262.8 -56.6 263.7 0L0 0Z" fill="#bf96ee"></path><path d="M0 -175.8C13.7 -142 27.5 -108.3 56.5 -97.9C85.5 -87.4 129.8 -100.3 152.2 -87.9C174.6 -75.5 175.2 -37.7 175.8 0L0 0Z" fill="#8b51e0"></path><path d="M0 -87.9C6.9 -71 13.7 -54.1 28.2 -48.9C42.8 -43.7 64.9 -50.2 76.1 -43.9C87.3 -37.7 87.6 -18.9 87.9 0L0 0Z" fill="#6c2bd9"></path></g></svg>